PSF_ID_stride2.mot
nRows=7
nColumns=38

name PSF_ID_stride2.mot
datacolumns 38
datarows 7
range 0.8800000000 0.9100000000
endheader
time	pelvis_tilt_moment	pelvis_list_moment	pelvis_rotation_moment	pelvis_tx_force	pelvis_ty_force	pelvis_tz_force	hip_flexion_r_moment	hip_adduction_r_moment	hip_rotation_r_moment	knee_angle_r_moment	ankle_angle_r_moment	subtalar_angle_r_moment	mtp_angle_r_moment	hip_flexion_l_moment	hip_adduction_l_moment	hip_rotation_l_moment	knee_angle_l_moment	ankle_angle_l_moment	subtalar_angle_l_moment	mtp_angle_l_moment	lumbar_extension_moment	lumbar_bending_moment	lumbar_rotation_moment	arm_flex_r_moment	arm_add_r_moment	arm_rot_r_moment	elbow_flex_r_moment	pro_sup_r_moment	wrist_flex_r_moment	wrist_dev_r_moment	arm_flex_l_moment	arm_add_l_moment	arm_rot_l_moment	elbow_flex_l_moment	pro_sup_l_moment	wrist_flex_l_moment	wrist_dev_l_moment
        0.8800000000	       -1.0515063879	      -11.8955553431	        5.7241806015	       63.7821872730	      -60.2547693334	      -22.4313801085	      -14.8975116537	      -55.9472795815	       29.0624782208	       -0.2472169103	     -197.9178959796	       46.7311901270	       -0.0253487150	       -6.1453765825	        4.4934108311	       -1.6669478404	        0.0622877106	        1.9802278348	       -0.1917561457	        0.1211072026	       25.7018206597	        9.8100241750	      -36.3193437031	       -0.5859074558	       -2.3929826226	       -3.3357559981	        4.5323846967	       -0.2002726803	       -0.2814224612	       -0.4549743198	        6.4115082161	        6.0333278051	        4.2638218494	        4.7692726041	        0.0309061879	        0.5412009445	       -0.2989453911	
        0.8850000000	        0.5572423152	      -21.0331394461	        1.9895835162	       59.0902370411	      -70.7750991695	      -11.3206065139	      -15.6038459124	      -51.9329039635	       26.3440976263	       -6.6353467832	     -185.3838050827	       43.2148571772	       -0.0317278066	       -8.2195387909	        2.5971129687	       -1.2255181867	       -0.3465942591	        2.0265957259	       -0.2410828070	        0.1212087881	       18.5264868614	        8.4183205150	      -38.4233634067	       -1.0414436143	       -2.6753903094	       -3.5490589257	        3.9685373244	       -0.1976351681	       -0.3174229099	       -0.4105389808	        6.4898276909	        5.8971471060	        4.3242521520	        4.3072249504	        0.0442618720	        0.5409527083	       -0.2530019433	
        0.8900000000	       -1.0769897989	      -27.1662613383	       -3.1253760317	       50.2668257399	      -77.5060412754	      -11.9166198978	      -13.0772666531	      -44.3689191714	       21.8641047518	      -10.4923958727	     -172.0346921217	       39.5937266855	       -0.0385991347	      -10.4892348812	        0.6271700812	       -0.6931187224	       -0.8792282689	        2.0808266134	       -0.3015948334	        0.1221942450	       10.6717324378	        7.0144259359	      -39.5680964972	       -1.3649175143	       -2.8744547695	       -3.6715742243	        3.4127603066	       -0.1924920095	       -0.3438271496	       -0.3647227193	        6.5043642016	        5.6750492650	        4.2921870335	        3.8478498968	        0.0547035231	        0.5331627358	       -0.2095257717	
        0.8950000000	       -4.3971184766	      -28.0710524043	       -9.3498634107	       38.5918337065	      -77.9324983762	      -18.8528032252	       -6.1821253165	      -34.5196555618	       15.9282210714	      -11.9175578143	     -157.7555249435	       35.8498375199	       -0.0453180660	      -12.7037473929	       -1.0973539679	       -0.1683847002	       -1.4683160132	        2.1460383199	       -0.3673453841	        0.1246261107	        2.8889280151	        5.6400761229	      -39.6821272583	       -1.5889031909	       -2.9079796892	       -3.6784791677	        2.8756142003	       -0.1846021137	       -0.3576967272	       -0.3184635990	        6.4742154368	        5.3457018848	        4.1722932401	        3.4018058433	        0.0620533514	        0.5138338436	       -0.1698010902	
        0.9000000000	       -5.6362868401	      -27.0481019952	      -14.8394929472	       26.0714877214	      -73.6538026916	      -31.0400158608	        2.8758094894	      -25.5345265188	       10.3928859946	      -12.5246341901	     -142.4594831749	       32.0507136617	       -0.0499419794	      -14.6823371159	       -2.0292420382	        0.2415492141	       -2.0518278719	        2.2228335886	       -0.4302732387	        0.1284760548	       -3.6060561724	        4.3184884947	      -39.2525515606	       -1.7721487554	       -2.8704095389	       -3.6003022599	        2.3668344080	       -0.1736770886	       -0.3602357298	       -0.2725547664	        6.3286660407	        4.8808054762	        3.9433042003	        2.9793603967	        0.0653684555	        0.4849011940	       -0.1351118868	
        0.9050000000	       -3.6201248747	      -23.5547358903	      -18.5192377749	       13.9521465781	      -61.1729122821	      -40.5855427870	       11.4211092199	      -18.9999135298	        6.4680165334	      -13.0629893959	     -126.2975927179	       28.2895789777	       -0.0522679892	      -16.3958319677	       -2.3393394407	        0.5192297513	       -2.6018530545	        2.3088736288	       -0.4857489225	        0.1336179687	       -8.3831024970	        3.0606245106	      -37.8667955833	       -1.9593834340	       -2.5932086023	       -3.3597855627	        1.8883333524	       -0.1595083588	       -0.3485485050	       -0.2273464637	        6.0253429496	        4.2563948757	        3.6099472917	        2.5833892659	        0.0662400750	        0.4468168390	       -0.1054020099	
        0.9100000000	        1.7033618529	      -20.1231634371	      -17.9374552410	        2.5267235864	      -45.9963904153	      -39.4465247603	       16.4800938269	      -16.8803367984	        6.6292197647	      -14.9333069280	     -110.4902766615	       24.6568827929	       -0.0497326270	      -17.7488266889	       -1.7935482983	        0.6021912002	       -3.0854904467	        2.4015165776	       -0.5282542188	        0.1395593841	       -9.8544360472	        1.9588065657	      -35.9693404348	       -2.2145712463	       -2.1654566538	       -3.0052136483	        1.4382151666	       -0.1422617079	       -0.3250959749	       -0.1826909609	        5.5595483769	        3.4786855151	        3.1902649488	        2.2131427519	        0.0643598191	        0.4014100122	       -0.0808353315	
